<?xml version="1.0" encoding="utf-8"?>
<!-- Generator: Adobe Illustrator 25.2.1, SVG Export Plug-In . SVG Version: 6.00 Build 0)  -->
<svg version="1.1" id="Vrstva_1" xmlns="http://www.w3.org/2000/svg" xmlns:xlink="http://www.w3.org/1999/xlink" x="0px" y="0px"
	 viewBox="0 0 526.93 266.93" style="enable-background:new 0 0 526.93 266.93;" xml:space="preserve">
<g fill="#e8f4ff">
	<g>
		<path d="M112.19,117.32L69.06,9.91h15.17l36.32,90.36h0.68l35.29-90.36h15l-43.3,107.41H112.19z"/>
		<path d="M198.8,9.91v107.41h-14.83V9.91H198.8z"/>
		<path d="M254.39,117.32L211.25,9.91h15.17l36.32,90.36h0.68l35.29-90.36h15l-43.3,107.41H254.39z"/>
		<path d="M341,9.91v107.41h-14.83V9.91H341z"/>
		<path d="M361.8,9.91h38.87c33.76,0,55.07,20.12,55.07,53.71s-21.31,53.71-55.07,53.71H361.8V9.91z M399.82,105.21
			c26.26,0,40.58-15.51,40.58-41.6s-14.32-41.6-40.58-41.6h-23.19v83.2H399.82z"/>
		<path d="M57.69,253.72H12V146.31h43.82c26.6,0,37.51,11.59,37.51,28.64c0,12.45-8.87,20.97-20.29,23.02
			c13.13,2.22,23.36,10.91,23.36,26.26C96.39,242.8,82.75,253.72,57.69,253.72z M26.32,192.68h30.01c15.51,0,22.16-6.65,22.16-17.05
			c0-10.23-6.65-17.22-22.16-17.22H26.32V192.68z M26.32,204.1v37.51h31.03c16.03,0,24.38-6.99,24.38-18.58
			c0-11.76-8.35-18.92-24.38-18.92H26.32z"/>
		<path d="M416.32,253.72l-44.33-50.98l-12.45,12.62v38.36h-14.83V146.31h14.83v53.02l52-53.02h17.56l-46.2,47.23l51.32,60.18
			H416.32z"/>
		<path d="M447.35,214.5c0.85,19.61,14.32,29.67,32.39,29.67c16.03,0,26.08-6.82,26.08-18.58c0-9.89-6.48-14.66-20.46-17.39
			l-21.31-4.09c-15.86-3.07-26.77-11.59-26.77-28.3c0-18.75,14.83-31.54,38.36-31.54c26.94,0,42.45,14.32,42.62,38.53l-13.47,0.68
			c-0.51-17.73-11.25-27.79-28.98-27.79c-15.51,0-24.21,7.33-24.21,19.27c0,10.57,6.99,13.98,19.44,16.37l19.44,3.75
			c19.61,3.75,29.5,12.28,29.5,29.5c0,19.78-17.05,31.2-40.24,31.2c-26.43,0-45.69-14.49-45.69-40.41L447.35,214.5z"/>
	</g>
	<g>
		<path d="M279.19,157.96c23.4,0,42.43,19.03,42.43,42.43c0,23.4-19.03,42.43-42.43,42.43c-23.4,0-42.43-19.03-42.43-42.43
			C236.76,176.99,255.79,157.96,279.19,157.96 M279.19,143.61c-31.36,0-56.78,25.42-56.78,56.78c0,31.36,25.42,56.78,56.78,56.78
			c31.36,0,56.78-25.42,56.78-56.78C335.97,169.03,310.55,143.61,279.19,143.61L279.19,143.61z"/>
		<path d="M158.47,158.18c23.27,0,42.21,18.93,42.21,42.21c0,23.27-18.93,42.21-42.21,42.21s-42.21-18.93-42.21-42.21
			C116.27,177.12,135.2,158.18,158.47,158.18 M158.47,143.61c-31.36,0-56.78,25.42-56.78,56.78c0,31.36,25.42,56.78,56.78,56.78
			s56.78-25.42,56.78-56.78C215.26,169.03,189.83,143.61,158.47,143.61L158.47,143.61z"/>
	</g>
</g>
</svg>
