<svg xmlns="http://www.w3.org/2000/svg" viewBox="0 0 100 100" fill="currentColor" aria-hidden="true">
  <path d="M25.284,42.41c.7011-7.8207,4.0406-13.8099,11.1447-17.0697,8.0967-3.7153,17.2528-1.0919,22.5452,6.4472.9143,1.3024,1.5792,2.0859,3.4219,1.7624,9.5369-1.6742,16.9762,3.9789,18.3599,13.7369.0579.4085.1524.8114.2512,1.3294,1.4436.2597,2.8759.3783,4.2263.7846,5.7103,1.718,9.4519,7.4237,8.8425,13.3454-.6512,6.327-5.4953,11.3851-11.7384,11.4361-19.7213.1611-39.4464.2338-59.1661-.0052-8.7929-.1066-15.0843-6.5577-15.6009-14.9797-.4752-7.748,4.7843-14.7164,12.4267-16.3106,1.6877-.352,3.4508-.3218,5.2869-.4767Z"/>
</svg>
