<svg xmlns="http://www.w3.org/2000/svg" viewBox="0 0 100 100" fill="currentColor" aria-hidden="true">
  <path d="M45.8369,55.8508c-2.8574,4.9691-5.8734,10.2142-8.8822,15.4477,8.291,4.8919,19.5863,4.7365,26.162-.1978-2.982-5.1661-5.9756-10.3522-8.8031-15.2499h-8.4767Z"/>
  <path d="M45.6216,40.7447c-2.8851-4.9611-5.9368-10.2075-9.0912-15.6303-8.3856,5.6434-12.7912,12.8327-13.0949,22.7223h17.9591c1.4343-2.406,2.7592-4.6293,4.227-7.092Z"/>
  <path d="M63.3762,25.5426c-2.9851,5.1594-5.9855,10.3446-8.9929,15.5428.8949,1.0771,1.7839,1.9179,2.3836,2.9307.6662,1.1248,1.0686,2.4064,1.6607,3.7961h18.1113c.4631-8.9505-5.4393-18.9562-13.1627-22.2695Z"/>
  <path d="M44.633,48.4842c.1474,2.8579,2.5502,5.1549,5.4161,5.1772,3.049.0241,5.425-2.3939,5.3956-5.4907-.029-3.1048-2.4149-5.3974-5.534-5.3179-3.0186.0768-5.4313,2.6511-5.2777,5.6314Z"/>
</svg>
