<svg xmlns="http://www.w3.org/2000/svg" viewBox="0 0 100 100" fill="currentColor" aria-hidden="true">
  <path d="M75.0714,39.0245l-19.2075-19.2077c-.87-.87-2.351-.5237-2.745.642l-.6497,1.9224c-.5072,1.5001-1.3535,2.8631-2.4731,3.9827l-24.0673,24.0673c-5.0759,5.0759-5.0759,13.3056,0,18.3815.6346.6346,1.3183,1.1897,2.039,1.6656,1.0812.7136,2.2455,1.2492,3.4512,1.606,1.2058.357,2.4532.5354,3.7006.5354,2.4948,0,4.9896-.7138,7.1516-2.1414.7207-.4759,1.4045-1.0311,2.039-1.6656l24.4209-24.3688c1.5093-1.3798,3.3822-2.3026,5.4117-2.6051,1.3478-.201,1.892-1.8507.9285-2.8142ZM30.0093,54.5281l8.3158-8.2828,20.6855-.2704-18.7889,18.7491c-1.3628,1.3628-3.1749,2.1133-5.102,2.1133s-3.7392-.7505-5.1022-2.1133c-2.8132-2.8133-2.8132-7.3909-.0081-10.196Z"/>
</svg>
